<svg width="64" height="64" viewBox="0 0 100 100" fill="none" xmlns="http://www.w3.org/2000/svg">
  <circle cx="50" cy="50" r="42" stroke="#1E3D59" stroke-width="2.5" fill="none" />
  <line x1="50" y1="50" x2="50" y2="20" stroke="#1E3D59" stroke-width="2" opacity="0.6" />
  <line x1="50" y1="50" x2="71" y2="29" stroke="#1E3D59" stroke-width="2" opacity="0.5" />
  <line x1="50" y1="50" x2="80" y2="50" stroke="#1E3D59" stroke-width="2.5" opacity="0.8" />
  <line x1="50" y1="50" x2="71" y2="71" stroke="#1E3D59" stroke-width="2" opacity="0.5" />
  <line x1="50" y1="50" x2="50" y2="80" stroke="#1E3D59" stroke-width="2" opacity="0.6" />
  <line x1="50" y1="50" x2="29" y2="71" stroke="#1E3D59" stroke-width="2" opacity="0.5" />
  <line x1="50" y1="50" x2="20" y2="50" stroke="#1E3D59" stroke-width="2" opacity="0.6" />
  <line x1="50" y1="50" x2="29" y2="29" stroke="#1E3D59" stroke-width="2" opacity="0.5" />
  <circle cx="50" cy="50" r="8" fill="#1E3D59" />
  <circle cx="50" cy="50" r="24" stroke="#1E3D59" stroke-width="1.5" fill="none" opacity="0.3" stroke-dasharray="4 4" />
  <circle cx="50" cy="15" r="3" fill="#1E3D59" opacity="0.7" />
  <circle cx="76" cy="24" r="2.5" fill="#1E3D59" opacity="0.5" />
  <circle cx="85" cy="50" r="3.5" fill="#1E3D59" opacity="0.9" />
  <circle cx="76" cy="76" r="2.5" fill="#1E3D59" opacity="0.5" />
  <circle cx="50" cy="85" r="3" fill="#1E3D59" opacity="0.7" />
  <circle cx="24" cy="76" r="2.5" fill="#1E3D59" opacity="0.5" />
  <circle cx="15" cy="50" r="3" fill="#1E3D59" opacity="0.7" />
  <circle cx="24" cy="24" r="2.5" fill="#1E3D59" opacity="0.5" />
</svg>
